<?xml version="1.0" standalone="no"?>
<!DOCTYPE svg PUBLIC "-//W3C//DTD SVG 20010904//EN"
 "http://www.w3.org/TR/2001/REC-SVG-20010904/DTD/svg10.dtd">
<svg version="1.0" xmlns="http://www.w3.org/2000/svg"
 width="640.000000pt" height="640.000000pt" viewBox="0 0 640.000000 640.000000"
 preserveAspectRatio="xMidYMid meet">

<g transform="translate(0.000000,640.000000) scale(0.100000,-0.100000)"
fill="#000000" stroke="none">
<path d="M3053 5466 c-159 -39 -298 -165 -355 -324 -13 -36 -21 -89 -23 -146
l-3 -89 -54 -22 c-476 -195 -775 -628 -848 -1227 -12 -94 -11 -186 6 -736 7
-224 -1 -324 -43 -512 -28 -128 -96 -320 -170 -480 -47 -102 -48 -107 -48
-200 0 -86 3 -101 33 -161 41 -85 128 -169 207 -198 53 -20 74 -21 484 -21
l429 0 16 -74 c32 -144 133 -269 275 -339 l84 -42 131 0 c131 0 131 0 209 37
142 68 263 221 283 357 4 25 12 49 18 53 6 4 201 8 433 8 503 0 493 -2 604
109 73 73 105 139 116 241 8 78 -8 137 -79 291 -91 199 -139 362 -174 582 -19
118 -21 409 -5 557 16 139 13 421 -4 554 -77 590 -384 1019 -862 1209 -40 16
-42 18 -36 50 9 60 -15 177 -53 256 -103 209 -343 322 -571 267z m256 -225
c88 -45 148 -133 158 -229 6 -50 5 -55 -12 -48 -49 18 -281 29 -409 18 -73 -6
-140 -14 -149 -18 -30 -11 -22 73 14 145 73 146 252 206 398 132z m87 -477
c501 -74 852 -441 960 -1004 34 -178 39 -334 19 -605 -38 -530 11 -840 198
-1250 76 -167 79 -218 15 -291 -61 -69 50 -64 -1414 -64 l-1327 0 -41 24 c-54
32 -90 95 -89 157 0 35 15 77 54 163 l54 116 971 0 c666 0 981 3 1002 11 91
31 80 162 -16 189 -24 6 -358 10 -961 10 l-923 0 6 23 c19 64 56 243 67 322
17 122 17 399 0 639 -28 377 17 664 144 933 159 336 448 559 810 623 129 23
332 25 471 4z m69 -3424 c9 -15 -37 -111 -75 -154 -55 -62 -121 -90 -215 -90
-68 -1 -88 3 -131 26 -60 32 -119 94 -146 155 -33 76 -44 73 276 73 182 0 287
-4 291 -10z"/>
</g>
</svg>
